<svg xmlns="http://www.w3.org/2000/svg" viewBox="0 0 1126.38 332.46"><defs><style>.cls-1{font-size:205.06px;}.cls-1,.cls-2,.cls-4{fill:#fff;}.cls-1,.cls-2{font-family:mplus-1c-light, "M+ 1c";font-weight:300;}.cls-2{font-size:234.35px;}.cls-3{fill:none;stroke:#fff;stroke-linecap:round;stroke-linejoin:round;stroke-width:12px;}</style></defs><g id="テキスト"><text class="cls-1" transform="translate(122 199.49) scale(0.97 1)">est</text><text class="cls-1" transform="translate(499.63 262.33) scale(0.97 1)">Maker</text><text class="cls-2" transform="translate(0 201.54) scale(0.97 1)">T</text></g><g id="アンカー"><polyline class="cls-3" points="14.35 35.37 517.18 35.37 406.29 262.33 1111.96 264.34"/><path class="cls-4" d="M1086.58,385.77a6,6,0,0,1,1.88-8.28L1166,328.4l-77.28-49.54a6,6,0,1,1,6.47-10.1l85.22,54.61a6,6,0,0,1,0,10.13l-85.52,54.13a6,6,0,0,1-8.3-1.86Z" transform="translate(-56.81 -64.07)"/></g></svg>