<svg xmlns="http://www.w3.org/2000/svg" viewBox="0 0 1118.03 265.07"><defs><style>.cls-1{fill:#fff;}.cls-2{fill:none;stroke:#fff;stroke-linecap:round;stroke-linejoin:round;stroke-width:12px;}</style></defs><g id="テキスト"><path class="cls-1" d="M197,212.29q.6,45.33,39.67,45.32a74.27,74.27,0,0,0,30.11-6.56v8.82a92.4,92.4,0,0,1-30.9,5.74q-48.45,0-48.45-55.37,0-29.73,12.56-42.55t32.3-12.81q40.86,0,40.87,53.72a22.9,22.9,0,0,1-.2,3.69Zm.2-8h66.39q-.6-41.43-31.3-41.42Q199.14,162.88,197.15,204.3Z" transform="translate(-65.16 -93.43)"/><path class="cls-1" d="M331.72,163.08q-13,0-19.94,5t-7,14.05a17.57,17.57,0,0,0,5.58,13.43q5.58,5.23,20.73,8.51,19.94,4.51,28.21,11.9t8.28,20.5q0,13.53-9.87,21.33t-27.61,7.79a78.76,78.76,0,0,1-33.9-7.59V249.2a72.71,72.71,0,0,0,33.3,8.21q13.75,0,21.13-5.54T358,236.49a19.3,19.3,0,0,0-5.78-14.05q-5.79-5.83-22.33-9.53-18.54-4.09-26.62-11.18T295.24,183q0-12.91,9.47-20.5t26.41-7.59a97.52,97.52,0,0,1,33.3,5.74v8.82A91.82,91.82,0,0,0,331.72,163.08Z" transform="translate(-65.16 -93.43)"/><path class="cls-1" d="M424,122.07v39H463.1v8.2H424v63q0,15.6,4.28,20.41t16.25,4.82a44.07,44.07,0,0,0,16.35-3.08v8.61a55.66,55.66,0,0,1-17.74,2.67q-16.56,0-22.73-7.07t-6.18-25.74V169.23H390.73V161h23.53v-39Z" transform="translate(-65.16 -93.43)"/><path class="cls-1" d="M574,326.4V176.7h11.37L636.78,269h.4l51.44-92.28h11.56V326.4h-10V192.7h-.39L642,278.62H632L584.15,192.7h-.4V326.4Z" transform="translate(-65.16 -93.43)"/><path class="cls-1" d="M797.67,259.75V252q0-14.15-6.08-19.89t-21.43-5.74a92.92,92.92,0,0,0-36.49,7.59v-9.44a99.57,99.57,0,0,1,36.49-6.77q20.54,0,28.91,8.1t8.37,28.2V326.4h-9.17l-.2-20.92h-.4A39.58,39.58,0,0,1,782,322.4a45.31,45.31,0,0,1-23.43,6.05q-13.76,0-22-8.51t-8.27-22.87a32.44,32.44,0,0,1,11.46-25.63q6.09-5.54,17.55-8.61t27.41-3.08Zm0,7.59h-13q-46.85,0-46.85,28.91,0,10.88,6.08,17.23t16.25,6.35a35.8,35.8,0,0,0,26.52-11.17q10.95-11.18,11-28.81Z" transform="translate(-65.16 -93.43)"/><path class="cls-1" d="M848.11,172.6v95.15h.4l57-48h12.75L857.08,271l61.8,55.37H906.32l-57.81-52.09h-.4V326.4h-9.57V172.6Z" transform="translate(-65.16 -93.43)"/><path class="cls-1" d="M946.59,275.13q.6,45.31,39.68,45.32a74.39,74.39,0,0,0,30.1-6.56v8.81a92.13,92.13,0,0,1-30.9,5.75q-48.45,0-48.45-55.37,0-29.73,12.56-42.55t32.3-12.82q40.86,0,40.87,53.73a22.9,22.9,0,0,1-.2,3.69Zm.2-8h66.39q-.6-41.41-31.3-41.42Q948.79,225.71,946.79,267.13Z" transform="translate(-65.16 -93.43)"/><path class="cls-1" d="M1057.44,219.77v26.86h.4a45.16,45.16,0,0,1,18-19.69q12.06-7.17,27.81-7.17h4v8.81h-4q-20.13,0-33,13t-12.86,34.15V326.4h-10V219.77Z" transform="translate(-65.16 -93.43)"/><path class="cls-1" d="M71.16,94.53H186.68v10.31H134.5V265.61H123.11V104.84H71.16Z" transform="translate(-65.16 -93.43)"/></g><g id="アンカー"><polyline class="cls-2" points="6 6 508.82 6 397.94 232.96 1110.82 234.99"/><path class="cls-1" d="M1134.89,357.11a3,3,0,0,1,.94-4.14l38.78-24.55L1136,303.65a3,3,0,0,1-.92-4.14,3,3,0,0,1,4.15-.91l42.61,27.31a3,3,0,0,1,0,5.06L1139,358a3.05,3.05,0,0,1-1.61.46A3,3,0,0,1,1134.89,357.11Z" transform="translate(-65.16 -93.43)"/></g></svg>